<svg width="109" height="215" viewBox="0 0 109 215" fill="none" xmlns="http://www.w3.org/2000/svg">
<path d="M54.5 11C63.3366 11 70.5 18.1634 70.5 27V47C70.5 55.8366 63.3366 63 54.5 63C45.6634 63 38.5 55.8366 38.5 47V27C38.5 18.1634 45.6634 11 54.5 11ZM54.5 13V21.7586C51.5545 21.7586 49.1667 24.1464 49.1667 27.092V37H40.5V47C40.5 54.732 46.768 61 54.5 61C62.1275 61 68.3303 54.9002 68.4966 47.3126L68.5 47V27C68.5 19.268 62.232 13 54.5 13ZM54.5 24C56.1569 24 57.5 25.3431 57.5 27V33C57.5 34.6569 56.1569 36 54.5 36C52.8431 36 51.5 34.6569 51.5 33V27C51.5 25.3431 52.8431 24 54.5 24ZM77.1129 26.2097L77.2071 26.2929L81.2071 30.2929C81.2356 30.3214 81.2623 30.3515 81.2872 30.3832L81.2071 30.2929C81.2425 30.3283 81.2747 30.3657 81.3037 30.4047C81.3215 30.4289 81.3383 30.4537 81.3539 30.4793C81.3614 30.4914 81.3685 30.5036 81.3753 30.5159C81.3862 30.5357 81.3966 30.5561 81.4063 30.5769C81.4143 30.5939 81.4218 30.6112 81.4288 30.6287C81.4367 30.6484 81.4439 30.6682 81.4505 30.6883C81.4553 30.7031 81.4599 30.7185 81.4642 30.734C81.4702 30.7556 81.4754 30.7773 81.4798 30.7992C81.4833 30.8166 81.4864 30.8341 81.489 30.8515C81.492 30.8715 81.4945 30.8921 81.4963 30.9129C81.4978 30.9317 81.4989 30.9497 81.4995 30.9677C81.4998 30.9778 81.5 30.9889 81.5 31L81.4995 31.0332C81.4989 31.0506 81.4979 31.0679 81.4964 31.0852L81.5 31C81.5 31.0506 81.4962 31.1004 81.489 31.149C81.4864 31.1659 81.4833 31.1834 81.4798 31.2007C81.4754 31.2227 81.4702 31.2444 81.4643 31.2658C81.4599 31.2815 81.4553 31.2969 81.4503 31.3121C81.4439 31.3318 81.4367 31.3516 81.4289 31.3711C81.4218 31.3888 81.4143 31.4061 81.4063 31.4232C81.3966 31.4439 81.3862 31.4643 81.3751 31.4843C81.3685 31.4964 81.3614 31.5086 81.354 31.5207C81.3383 31.5463 81.3215 31.5711 81.3037 31.5952C81.2993 31.6012 81.2948 31.6071 81.2903 31.6129C81.2849 31.6197 81.2826 31.6226 81.2803 31.6255L81.2071 31.7071L77.2071 35.7071C76.8166 36.0976 76.1834 36.0976 75.7929 35.7071C75.4324 35.3466 75.4047 34.7794 75.7097 34.3871L75.7929 34.2929L78.085 32H74.5C73.9477 32 73.5 31.5523 73.5 31C73.5 30.4872 73.886 30.0645 74.3834 30.0067L74.5 30H78.085L75.7929 27.7071C75.4324 27.3466 75.4047 26.7794 75.7097 26.3871L75.7929 26.2929C76.1534 25.9324 76.7206 25.9047 77.1129 26.2097ZM31.8871 26.2097C32.2794 25.9047 32.8466 25.9324 33.2071 26.2929L33.2903 26.3871C33.5953 26.7794 33.5676 27.3466 33.2071 27.7071L30.914 30H34.5L34.6166 30.0067C35.114 30.0645 35.5 30.4872 35.5 31C35.5 31.5523 35.0523 32 34.5 32H30.914L33.2071 34.2929L33.2903 34.3871C33.5953 34.7794 33.5676 35.3466 33.2071 35.7071C32.8166 36.0976 32.1834 36.0976 31.7929 35.7071L27.7929 31.7071L27.7197 31.6255C27.7174 31.6226 27.7151 31.6197 27.7128 31.6167C27.7052 31.6071 27.7007 31.6012 27.6963 31.5953C27.6785 31.5711 27.6617 31.5463 27.6461 31.5207C27.6386 31.5086 27.6315 31.4964 27.6247 31.4841C27.6138 31.4643 27.6034 31.4439 27.5937 31.4231C27.5857 31.4061 27.5782 31.3888 27.5712 31.3713C27.5633 31.3516 27.5561 31.3318 27.5495 31.3117C27.5447 31.2969 27.5401 31.2815 27.5358 31.266C27.5298 31.2444 27.5246 31.2227 27.5202 31.2008C27.5167 31.1834 27.5136 31.166 27.511 31.1485C27.5038 31.1004 27.5 31.0506 27.5 31L27.5036 31.0852C27.5018 31.0633 27.5006 31.0413 27.5002 31.0194L27.5 31C27.5 30.9936 27.5001 30.9872 27.5002 30.9808C27.5006 30.958 27.5019 30.9343 27.504 30.9107C27.5058 30.8902 27.5081 30.8705 27.511 30.851C27.5136 30.8341 27.5167 30.8166 27.5202 30.7993C27.5246 30.7773 27.5298 30.7556 27.5357 30.7342C27.5401 30.7185 27.5447 30.7031 27.5497 30.6879C27.5561 30.6682 27.5633 30.6484 27.5711 30.6289C27.5782 30.6112 27.5857 30.5939 27.5937 30.5768C27.6034 30.5561 27.6138 30.5357 27.6249 30.5157C27.6315 30.5036 27.6386 30.4914 27.646 30.4793C27.6617 30.4537 27.6785 30.4289 27.6963 30.4048C27.7253 30.3657 27.7575 30.3283 27.7929 30.2929L27.7128 30.3832C27.7377 30.3515 27.7644 30.3214 27.7929 30.2929L31.7929 26.2929L31.8871 26.2097ZM54.5 26C53.9872 26 53.5645 26.386 53.5067 26.8834L53.5 27V33C53.5 33.5523 53.9477 34 54.5 34C55.0128 34 55.4355 33.614 55.4933 33.1166L55.5 33V27C55.5 26.4477 55.0523 26 54.5 26ZM54.5 0L54.5194 0.000186205C54.5427 0.000634945 54.566 0.00189502 54.5893 0.00396645L54.5 0C54.5506 0 54.6004 0.0037612 54.649 0.0110193C54.6659 0.0136281 54.6834 0.0167022 54.7007 0.0202401C54.7227 0.0246398 54.7444 0.0298336 54.7658 0.0357209C54.7815 0.0400977 54.7969 0.0447287 54.8121 0.049738C54.8318 0.0561224 54.8516 0.0633157 54.8711 0.0711039C54.8888 0.0781964 54.9061 0.085679 54.9232 0.0936733C54.9439 0.103377 54.9643 0.113794 54.9843 0.124876C54.9964 0.131499 55.0086 0.138607 55.0207 0.145995C55.0463 0.161719 55.0711 0.17849 55.0952 0.196314C55.1012 0.200718 55.1071 0.205175 55.1129 0.209705C55.1197 0.215071 55.1226 0.217372 55.1254 0.219689L55.2071 0.292893L59.2071 4.29289C59.5976 4.68342 59.5976 5.31658 59.2071 5.70711C58.8466 6.06759 58.2794 6.09532 57.8871 5.7903L57.7929 5.70711L55.5 3.415V7C55.5 7.55228 55.0523 8 54.5 8C53.9872 8 53.5645 7.61396 53.5067 7.11662L53.5 7V3.415L51.2071 5.70711C50.8466 6.06759 50.2794 6.09532 49.8871 5.7903L49.7929 5.70711C49.4324 5.34662 49.4047 4.77939 49.7097 4.3871L49.7929 4.29289L53.7929 0.292893L53.8746 0.219689C53.8774 0.217372 53.8803 0.215071 53.8832 0.212786L53.7929 0.292893C53.8283 0.257499 53.8657 0.225313 53.9047 0.196335C53.9289 0.17849 53.9537 0.161719 53.9793 0.146067C53.9914 0.138607 54.0036 0.131499 54.0159 0.124671C54.0357 0.113794 54.0561 0.103377 54.0769 0.0936538C54.0939 0.0856791 54.1112 0.0781965 54.1287 0.0712255C54.1484 0.0633158 54.1682 0.0561225 54.1883 0.0495467C54.2031 0.0447288 54.2185 0.0400978 54.234 0.0358452C54.2556 0.0298337 54.2773 0.0246399 54.2992 0.0201652C54.3166 0.0167022 54.3341 0.0136281 54.3515 0.0110178C54.3705 0.00811223 54.3902 0.00576606 54.41 0.00399792C54.4343 0.00186554 54.458 0.000599378 54.4816 0.000167608C54.4872 6.02983e-05 54.4936 0 54.5 0Z" fill="#656565"/>
<g clip-path="url(#clip0_421_12004)">
<path d="M34.5 105C36.1569 105 37.5 106.343 37.5 108V128C37.5 129.657 36.1569 131 34.5 131H14.5C12.8431 131 11.5 129.657 11.5 128V108C11.5 106.343 12.8431 105 14.5 105H34.5ZM64.5 105C66.1569 105 67.5 106.343 67.5 108V128C67.5 129.657 66.1569 131 64.5 131H44.5C42.8431 131 41.5 129.657 41.5 128V108C41.5 106.343 42.8431 105 44.5 105H64.5ZM94.5 105C96.1569 105 97.5 106.343 97.5 108V128C97.5 129.657 96.1569 131 94.5 131H74.5C72.8431 131 71.5 129.657 71.5 128V108C71.5 106.343 72.8431 105 74.5 105H94.5ZM34.5 107H14.5C13.9872 107 13.5645 107.386 13.5067 107.883L13.5 108V128C13.5 128.513 13.886 128.936 14.3834 128.993L14.5 129H34.5C35.0128 129 35.4355 128.614 35.4933 128.117L35.5 128V108C35.5 107.487 35.114 107.064 34.6166 107.007L34.5 107ZM64.5 107H44.5C43.9872 107 43.5645 107.386 43.5067 107.883L43.5 108V128C43.5 128.513 43.886 128.936 44.3834 128.993L44.5 129H64.5C65.0128 129 65.4355 128.614 65.4933 128.117L65.5 128V108C65.5 107.487 65.114 107.064 64.6166 107.007L64.5 107ZM94.5 107H74.5C73.9872 107 73.5645 107.386 73.5067 107.883L73.5 108V128C73.5 128.513 73.886 128.936 74.3834 128.993L74.5 129H94.5C95.0128 129 95.4355 128.614 95.4933 128.117L95.5 128V108C95.5 107.487 95.114 107.064 94.6166 107.007L94.5 107ZM54.292 113.48C54.956 113.48 55.53 113.596 56.014 113.828C56.498 114.06 56.866 114.35 57.118 114.698C57.37 115.046 57.504 115.392 57.52 115.736C57.52 115.8 57.496 115.858 57.448 115.91C57.4 115.962 57.34 115.988 57.268 115.988H56.128L56.0447 115.982C55.9136 115.962 55.8213 115.892 55.768 115.772C55.728 115.516 55.572 115.302 55.3 115.13C55.028 114.958 54.692 114.872 54.292 114.872C53.852 114.872 53.506 114.956 53.254 115.124C53.002 115.292 52.876 115.536 52.876 115.856C52.876 116.072 52.94 116.252 53.068 116.396C53.196 116.54 53.396 116.666 53.668 116.774C53.94 116.882 54.336 117.004 54.856 117.14C55.568 117.3 56.134 117.48 56.554 117.68C56.974 117.88 57.284 118.132 57.484 118.436C57.684 118.74 57.784 119.128 57.784 119.6C57.784 120.12 57.642 120.57 57.358 120.95C57.074 121.33 56.674 121.62 56.158 121.82C55.642 122.02 55.044 122.12 54.364 122.12C53.644 122.12 53.028 122.012 52.516 121.796C52.004 121.58 51.616 121.296 51.352 120.944C51.088 120.592 50.948 120.208 50.932 119.792C50.932 119.728 50.956 119.67 51.004 119.618C51.052 119.566 51.112 119.54 51.184 119.54H52.276L52.3587 119.547C52.4102 119.556 52.4547 119.573 52.492 119.6C52.548 119.64 52.6 119.696 52.648 119.768C52.728 120.04 52.91 120.268 53.194 120.452C53.478 120.636 53.868 120.728 54.364 120.728C54.924 120.728 55.346 120.634 55.63 120.446C55.914 120.258 56.056 120 56.056 119.672C56.056 119.456 55.984 119.276 55.84 119.132C55.696 118.988 55.478 118.862 55.186 118.754C54.894 118.646 54.46 118.516 53.884 118.364C52.94 118.14 52.248 117.844 51.808 117.476C51.368 117.108 51.148 116.58 51.148 115.892C51.148 115.428 51.276 115.014 51.532 114.65C51.788 114.286 52.154 114 52.63 113.792C53.106 113.584 53.66 113.48 54.292 113.48ZM25.66 113.6L25.7452 113.606C25.9078 113.631 26.0234 113.729 26.092 113.9L28.972 121.64L28.996 121.748L28.9873 121.816C28.9758 121.859 28.9527 121.896 28.918 121.928C28.866 121.976 28.808 122 28.744 122H27.676L27.5963 121.994C27.4708 121.973 27.3813 121.899 27.328 121.772L26.776 120.32H23.224L22.672 121.772L22.6357 121.842C22.5679 121.947 22.464 122 22.324 122H21.256L21.188 121.992C21.1453 121.981 21.108 121.96 21.076 121.928C21.028 121.88 21.004 121.82 21.004 121.748L21.028 121.64L23.908 113.9L23.9462 113.82C24.0304 113.673 24.1617 113.6 24.34 113.6H25.66ZM84.934 113.6L85.1661 113.604C87.373 113.674 88.4996 114.761 88.546 116.864C88.562 117.328 88.57 117.64 88.57 117.8C88.57 117.952 88.562 118.26 88.546 118.724C88.514 119.844 88.212 120.67 87.64 121.202C87.068 121.734 86.186 122 84.994 122H82.006L81.93 121.991C81.882 121.978 81.8393 121.953 81.802 121.916C81.746 121.86 81.718 121.792 81.718 121.712V113.9L81.7267 113.817C81.7382 113.766 81.7613 113.721 81.796 113.684C81.848 113.628 81.918 113.6 82.006 113.6H84.934ZM84.874 114.992H83.41V120.608H84.934C85.598 120.608 86.078 120.46 86.374 120.164C86.67 119.868 86.826 119.376 86.842 118.688C86.858 118.208 86.866 117.908 86.866 117.788C86.866 117.66 86.858 117.364 86.842 116.9C86.826 116.244 86.662 115.762 86.35 115.454C86.038 115.146 85.546 114.992 84.874 114.992ZM25 115.232L23.644 118.928H26.356L25 115.232ZM64.5 75C66.1569 75 67.5 76.3431 67.5 78V98C67.5 99.6569 66.1569 101 64.5 101H44.5C42.8431 101 41.5 99.6569 41.5 98V78C41.5 76.3431 42.8431 75 44.5 75H64.5ZM64.5 77H44.5C43.9872 77 43.5645 77.386 43.5067 77.8834L43.5 78V98C43.5 98.5128 43.886 98.9355 44.3834 98.9933L44.5 99H64.5C65.0128 99 65.4355 98.614 65.4933 98.1166L65.5 98V78C65.5 77.4872 65.114 77.0645 64.6166 77.0067L64.5 77ZM51.392 83.6L51.4647 83.6034C51.5322 83.6101 51.584 83.627 51.62 83.654C51.668 83.69 51.7 83.752 51.716 83.84L52.712 89.24L53.78 85.76L53.8243 85.6683C53.9054 85.5294 54.0227 85.46 54.176 85.46H54.836L54.9103 85.4656C54.9808 85.4769 55.04 85.505 55.088 85.55C55.152 85.61 55.196 85.68 55.22 85.76L56.3 89.24L57.284 83.84L57.2997 83.7763C57.3418 83.6588 57.4486 83.6 57.62 83.6H58.7L58.7613 83.608C58.8004 83.6187 58.836 83.64 58.868 83.672C58.916 83.72 58.94 83.78 58.94 83.852C58.94 83.892 58.936 83.924 58.928 83.948L57.512 91.64L57.4944 91.7195C57.4711 91.7945 57.431 91.856 57.374 91.904C57.298 91.968 57.2 92 57.08 92H56.264L56.1838 91.9944C56.1073 91.9831 56.042 91.955 55.988 91.91C55.916 91.85 55.868 91.78 55.844 91.7L54.5 87.716L53.156 91.7L53.1239 91.7796C53.0504 91.9265 52.9211 92 52.736 92H51.92L51.826 91.9927C51.6487 91.9633 51.536 91.8457 51.488 91.64L50.072 83.948L50.06 83.852L50.068 83.784C50.0787 83.7413 50.1 83.704 50.132 83.672C50.18 83.624 50.24 83.6 50.312 83.6H51.392Z" fill="#656565"/>
</g>
<path d="M105 144H4C2.34315 144 1 145.343 1 147V171C1 172.657 2.34315 174 4 174H105C106.657 174 108 172.657 108 171V147C108 145.343 106.657 144 105 144Z" stroke="#656565" stroke-width="2"/>
<path d="M11.8636 163.12C12.5436 163.12 13.1416 163.02 13.6576 162.82C14.1736 162.62 14.5736 162.33 14.8576 161.95C15.1416 161.57 15.2836 161.12 15.2836 160.6C15.2836 160.128 15.1836 159.74 14.9836 159.436C14.7836 159.132 14.4736 158.88 14.0536 158.68C13.6336 158.48 13.0676 158.3 12.3556 158.14C11.8356 158.004 11.4396 157.882 11.1676 157.774C10.8956 157.666 10.6956 157.54 10.5676 157.396C10.4396 157.252 10.3756 157.072 10.3756 156.856C10.3756 156.536 10.5016 156.292 10.7536 156.124C11.0056 155.956 11.3516 155.872 11.7916 155.872C12.1916 155.872 12.5276 155.958 12.7996 156.13C13.0716 156.302 13.2276 156.516 13.2676 156.772C13.3316 156.916 13.4516 156.988 13.6276 156.988H14.7676C14.8396 156.988 14.8996 156.962 14.9476 156.91C14.9956 156.858 15.0196 156.8 15.0196 156.736C15.0036 156.392 14.8696 156.046 14.6176 155.698C14.3656 155.35 13.9976 155.06 13.5136 154.828C13.0296 154.596 12.4556 154.48 11.7916 154.48C11.1596 154.48 10.6056 154.584 10.1296 154.792C9.65364 155 9.28764 155.286 9.03164 155.65C8.77564 156.014 8.64764 156.428 8.64764 156.892C8.64764 157.58 8.86764 158.108 9.30764 158.476C9.74764 158.844 10.4396 159.14 11.3836 159.364C11.9596 159.516 12.3936 159.646 12.6856 159.754C12.9776 159.862 13.1956 159.988 13.3396 160.132C13.4836 160.276 13.5556 160.456 13.5556 160.672C13.5556 161 13.4136 161.258 13.1296 161.446C12.8456 161.634 12.4236 161.728 11.8636 161.728C11.3676 161.728 10.9776 161.636 10.6936 161.452C10.4096 161.268 10.2276 161.04 10.1476 160.768C10.0996 160.696 10.0476 160.64 9.99164 160.6C9.93564 160.56 9.86364 160.54 9.77564 160.54H8.68364C8.61164 160.54 8.55164 160.566 8.50364 160.618C8.45564 160.67 8.43164 160.728 8.43164 160.792C8.44764 161.208 8.58764 161.592 8.85164 161.944C9.11564 162.296 9.50364 162.58 10.0156 162.796C10.5276 163.012 11.1436 163.12 11.8636 163.12ZM17.8516 165.28C17.9396 165.28 18.0096 165.254 18.0616 165.202C18.1136 165.15 18.1396 165.08 18.1396 164.992V162.268C18.5636 162.836 19.1756 163.12 19.9756 163.12C20.7836 163.12 21.4056 162.862 21.8416 162.346C22.2776 161.83 22.5076 161.152 22.5316 160.312C22.5396 160.216 22.5436 160.072 22.5436 159.88C22.5436 159.688 22.5396 159.544 22.5316 159.448C22.4996 158.592 22.2676 157.91 21.8356 157.402C21.4036 156.894 20.7836 156.64 19.9756 156.64C19.1276 156.64 18.4916 156.936 18.0676 157.528V157.048C18.0676 156.968 18.0396 156.9 17.9836 156.844C17.9276 156.788 17.8556 156.76 17.7676 156.76H16.8076C16.7276 156.76 16.6596 156.786 16.6036 156.838C16.5476 156.89 16.5196 156.96 16.5196 157.048V164.992C16.5196 165.08 16.5476 165.15 16.6036 165.202C16.6596 165.254 16.7276 165.28 16.8076 165.28H17.8516ZM19.5196 161.824C19.0796 161.824 18.7436 161.684 18.5116 161.404C18.2796 161.124 18.1556 160.784 18.1396 160.384C18.1316 160.28 18.1276 160.124 18.1276 159.916L18.1281 159.798C18.1294 159.649 18.1332 159.537 18.1396 159.46C18.1556 159.036 18.2756 158.676 18.4996 158.38C18.7236 158.084 19.0636 157.936 19.5196 157.936C20.3756 157.936 20.8316 158.464 20.8876 159.52C20.8956 159.6 20.8996 159.72 20.8996 159.88C20.8996 160.04 20.8956 160.16 20.8876 160.24C20.8316 161.296 20.3756 161.824 19.5196 161.824ZM25.6876 163.12C26.1676 163.12 26.5676 163.038 26.8876 162.874C27.2076 162.71 27.4556 162.5 27.6316 162.244V162.712C27.6316 162.792 27.6596 162.86 27.7156 162.916C27.7716 162.972 27.8396 163 27.9196 163H28.9156C29.0036 163 29.0736 162.972 29.1256 162.916C29.1776 162.86 29.2036 162.792 29.2036 162.712V158.944C29.2036 158.256 28.9876 157.7 28.5556 157.276C28.1236 156.852 27.4356 156.64 26.4916 156.64C25.9156 156.64 25.4316 156.734 25.0396 156.922C24.6476 157.11 24.3576 157.33 24.1696 157.582C23.9816 157.834 23.8836 158.06 23.8756 158.26C23.8756 158.34 23.9016 158.404 23.9536 158.452C24.0056 158.5 24.0676 158.524 24.1396 158.524H25.0756C25.1636 158.524 25.2236 158.476 25.2556 158.38L25.4536 158.182C25.5536 158.082 25.6836 157.984 25.8436 157.888C26.0036 157.792 26.2156 157.744 26.4796 157.744C26.8636 157.744 27.1436 157.832 27.3196 158.008C27.4956 158.184 27.5836 158.444 27.5836 158.788V159.04L25.9396 159.28C25.1716 159.4 24.5676 159.628 24.1276 159.964C23.6876 160.3 23.4676 160.74 23.4676 161.284C23.4676 161.62 23.5656 161.928 23.7616 162.208C23.9576 162.488 24.2256 162.71 24.5656 162.874C24.9056 163.038 25.2796 163.12 25.6876 163.12ZM26.0956 161.968C25.7996 161.968 25.5456 161.898 25.3336 161.758C25.1216 161.618 25.0156 161.42 25.0156 161.164C25.0156 160.692 25.4756 160.384 26.3956 160.24L27.5956 160.048V160.288C27.5956 160.832 27.4556 161.248 27.1756 161.536C26.8956 161.824 26.5356 161.968 26.0956 161.968ZM33.4396 163.12C34.0876 163.12 34.6276 163.004 35.0596 162.772C35.4916 162.54 35.8116 162.262 36.0196 161.938C36.2276 161.614 36.3396 161.312 36.3556 161.032C36.3636 160.952 36.3376 160.884 36.2776 160.828C36.2176 160.772 36.1476 160.744 36.0676 160.744H34.9996C34.9116 160.744 34.8456 160.764 34.8016 160.804C34.7576 160.844 34.7196 160.908 34.6876 160.996C34.5676 161.308 34.4116 161.53 34.2196 161.662C34.0276 161.794 33.7756 161.86 33.4636 161.86C32.6316 161.86 32.1916 161.34 32.1436 160.3L32.1316 159.904L32.1436 159.46C32.1596 158.932 32.2816 158.54 32.5096 158.284C32.7376 158.028 33.0556 157.9 33.4636 157.9C33.7676 157.9 34.0176 157.968 34.2136 158.104C34.4096 158.24 34.5676 158.46 34.6876 158.764C34.7276 158.86 34.7676 158.926 34.8076 158.962C34.8476 158.998 34.9116 159.016 34.9996 159.016H36.0676C36.1476 159.016 36.2176 158.988 36.2776 158.932C36.3376 158.876 36.3636 158.808 36.3556 158.728C36.3396 158.432 36.2256 158.122 36.0136 157.798C35.8016 157.474 35.4776 157.2 35.0416 156.976C34.6056 156.752 34.0716 156.64 33.4396 156.64C32.5596 156.64 31.8576 156.884 31.3336 157.372C30.8096 157.86 30.5316 158.536 30.4996 159.4L30.4876 159.88L30.4996 160.36C30.5316 161.224 30.8096 161.9 31.3336 162.388C31.8576 162.876 32.5596 163.12 33.4396 163.12ZM40.3036 163.12C40.8636 163.12 41.3556 163.024 41.7796 162.832C42.2036 162.64 42.5296 162.414 42.7576 162.154C42.9856 161.894 43.0996 161.668 43.0996 161.476C43.0996 161.404 43.0736 161.348 43.0216 161.308C42.9696 161.268 42.9076 161.248 42.8356 161.248H41.7796C41.6836 161.248 41.6156 161.258 41.5756 161.278C41.5356 161.298 41.4796 161.352 41.4076 161.44C41.1196 161.808 40.7476 161.992 40.2916 161.992C39.8916 161.992 39.5776 161.846 39.3496 161.554C39.1216 161.262 38.9996 160.892 38.9836 160.444V160.348H42.9676C43.0556 160.348 43.1276 160.32 43.1836 160.264C43.2396 160.208 43.2676 160.14 43.2676 160.06V159.808C43.2676 158.848 43.0096 158.08 42.4936 157.504C41.9776 156.928 41.2436 156.64 40.2916 156.64C39.3636 156.64 38.6376 156.928 38.1136 157.504C37.5896 158.08 37.3276 158.868 37.3276 159.868L37.3396 160.168C37.3716 161.112 37.6496 161.84 38.1736 162.352C38.6976 162.864 39.4076 163.12 40.3036 163.12ZM41.6116 159.328H38.9836V159.304C38.9836 158.832 39.0996 158.454 39.3316 158.17C39.5636 157.886 39.8836 157.744 40.2916 157.744C40.6996 157.744 41.0216 157.886 41.2576 158.17C41.4936 158.454 41.6116 158.832 41.6116 159.304V159.328Z" fill="#656565"/>
<path fill-rule="evenodd" clip-rule="evenodd" d="M83.8236 155.1C84.6203 155.1 85.3487 155.55 85.705 156.263L87.3125 159.478C87.558 159.969 87.4618 160.562 87.0736 160.95C86.8148 161.209 86.3953 161.209 86.1366 160.95C86.0862 160.9 86.0443 160.842 86.0125 160.778L84.4736 157.7V168.1C84.4736 168.818 83.8916 169.4 83.1736 169.4C82.4556 169.4 81.8736 168.818 81.8736 168.1V163.55C81.8736 163.191 81.5826 162.9 81.2236 162.9C80.8646 162.9 80.5736 163.191 80.5736 163.55V168.1C80.5736 168.818 79.9916 169.4 79.2736 169.4C78.5556 169.4 77.9736 168.818 77.9736 168.1V157.7L76.4347 160.778C76.271 161.105 75.8731 161.238 75.5458 161.074C75.4821 161.042 75.4239 161 75.3736 160.95C74.9854 160.562 74.8892 159.969 75.1347 159.478L76.7422 156.263C77.0731 155.601 77.7247 155.166 78.454 155.107L78.6236 155.1H83.8236ZM81.2236 148.6C82.6595 148.6 83.8236 149.764 83.8236 151.2C83.8236 152.636 82.6595 153.8 81.2236 153.8C79.7876 153.8 78.6236 152.636 78.6236 151.2C78.6236 149.764 79.7876 148.6 81.2236 148.6Z" fill="#656565"/>
<path fill-rule="evenodd" clip-rule="evenodd" d="M89.3008 155.1H99.7008L94.5008 148.6L89.3008 155.1Z" fill="#656565"/>
<path d="M94.5 153.15V168.75" stroke="#656565" stroke-width="2" stroke-dasharray="2 2"/>
<path d="M105 184H4C2.34315 184 1 185.343 1 187V211C1 212.657 2.34315 214 4 214H105C106.657 214 108 212.657 108 211V187C108 185.343 106.657 184 105 184Z" stroke="#656565" stroke-width="2"/>
<path d="M11.8636 203.12C12.5436 203.12 13.1416 203.02 13.6576 202.82C14.1736 202.62 14.5736 202.33 14.8576 201.95C15.1416 201.57 15.2836 201.12 15.2836 200.6C15.2836 200.128 15.1836 199.74 14.9836 199.436C14.7836 199.132 14.4736 198.88 14.0536 198.68C13.6336 198.48 13.0676 198.3 12.3556 198.14C11.8356 198.004 11.4396 197.882 11.1676 197.774C10.8956 197.666 10.6956 197.54 10.5676 197.396C10.4396 197.252 10.3756 197.072 10.3756 196.856C10.3756 196.536 10.5016 196.292 10.7536 196.124C11.0056 195.956 11.3516 195.872 11.7916 195.872C12.1916 195.872 12.5276 195.958 12.7996 196.13C13.0716 196.302 13.2276 196.516 13.2676 196.772C13.3316 196.916 13.4516 196.988 13.6276 196.988H14.7676C14.8396 196.988 14.8996 196.962 14.9476 196.91C14.9956 196.858 15.0196 196.8 15.0196 196.736C15.0036 196.392 14.8696 196.046 14.6176 195.698C14.3656 195.35 13.9976 195.06 13.5136 194.828C13.0296 194.596 12.4556 194.48 11.7916 194.48C11.1596 194.48 10.6056 194.584 10.1296 194.792C9.65364 195 9.28764 195.286 9.03164 195.65C8.77564 196.014 8.64764 196.428 8.64764 196.892C8.64764 197.58 8.86764 198.108 9.30764 198.476C9.74764 198.844 10.4396 199.14 11.3836 199.364C11.9596 199.516 12.3936 199.646 12.6856 199.754C12.9776 199.862 13.1956 199.988 13.3396 200.132C13.4836 200.276 13.5556 200.456 13.5556 200.672C13.5556 201 13.4136 201.258 13.1296 201.446C12.8456 201.634 12.4236 201.728 11.8636 201.728C11.3676 201.728 10.9776 201.636 10.6936 201.452C10.4096 201.268 10.2276 201.04 10.1476 200.768C10.0996 200.696 10.0476 200.64 9.99164 200.6C9.93564 200.56 9.86364 200.54 9.77564 200.54H8.68364C8.61164 200.54 8.55164 200.566 8.50364 200.618C8.45564 200.67 8.43164 200.728 8.43164 200.792C8.44764 201.208 8.58764 201.592 8.85164 201.944C9.11564 202.296 9.50364 202.58 10.0156 202.796C10.5276 203.012 11.1436 203.12 11.8636 203.12ZM17.8996 203C17.9876 203 18.0576 202.972 18.1096 202.916C18.1616 202.86 18.1876 202.792 18.1876 202.712V199.412C18.1876 198.956 18.3116 198.596 18.5596 198.332C18.8076 198.068 19.1356 197.936 19.5436 197.936C19.9676 197.936 20.2936 198.066 20.5216 198.326C20.7496 198.586 20.8636 198.948 20.8636 199.412V202.712C20.8636 202.792 20.8916 202.86 20.9476 202.916C21.0036 202.972 21.0756 203 21.1636 203H22.2556C22.3436 203 22.4136 202.972 22.4656 202.916C22.5176 202.86 22.5436 202.792 22.5436 202.712V199.34C22.5436 198.508 22.3236 197.85 21.8836 197.366C21.4436 196.882 20.8556 196.64 20.1196 196.64C19.3116 196.64 18.6676 196.928 18.1876 197.504V194.768C18.1876 194.68 18.1616 194.61 18.1096 194.558C18.0576 194.506 17.9876 194.48 17.8996 194.48H16.8076C16.7276 194.48 16.6596 194.506 16.6036 194.558C16.5476 194.61 16.5196 194.68 16.5196 194.768V202.712C16.5196 202.792 16.5476 202.86 16.6036 202.916C16.6596 202.972 16.7276 203 16.8076 203H17.8996ZM25.4116 195.74C25.4916 195.74 25.5616 195.712 25.6216 195.656C25.6816 195.6 25.7116 195.532 25.7116 195.452V194.576C25.7116 194.488 25.6836 194.416 25.6276 194.36C25.5716 194.304 25.4996 194.276 25.4116 194.276H24.3076C24.2276 194.276 24.1596 194.304 24.1036 194.36C24.0476 194.416 24.0196 194.488 24.0196 194.576V195.452C24.0196 195.532 24.0476 195.6 24.1036 195.656C24.1596 195.712 24.2276 195.74 24.3076 195.74H25.4116ZM25.3756 203C25.4556 203 25.5236 202.972 25.5796 202.916C25.6356 202.86 25.6636 202.792 25.6636 202.712V197.048C25.6636 196.968 25.6356 196.9 25.5796 196.844C25.5236 196.788 25.4556 196.76 25.3756 196.76H24.3556C24.2756 196.76 24.2076 196.786 24.1516 196.838C24.0956 196.89 24.0676 196.96 24.0676 197.048V202.712C24.0676 202.792 24.0956 202.86 24.1516 202.916C24.2076 202.972 24.2756 203 24.3556 203H25.3756ZM29.2036 203C29.2916 203 29.3616 202.972 29.4136 202.916C29.4656 202.86 29.4916 202.792 29.4916 202.712V198.044H30.9916C31.0716 198.044 31.1396 198.016 31.1956 197.96C31.2516 197.904 31.2796 197.836 31.2796 197.756V197.048C31.2796 196.968 31.2516 196.9 31.1956 196.844C31.1396 196.788 31.0716 196.76 30.9916 196.76H29.4916V196.34C29.4916 196.02 29.5556 195.784 29.6836 195.632C29.8116 195.48 30.0316 195.404 30.3436 195.404H31.1116C31.1916 195.404 31.2596 195.376 31.3156 195.32C31.3716 195.264 31.3996 195.196 31.3996 195.116V194.408C31.3996 194.328 31.3716 194.26 31.3156 194.204C31.2596 194.148 31.1916 194.12 31.1116 194.12H30.2836C29.4916 194.12 28.8996 194.298 28.5076 194.654C28.1156 195.01 27.9196 195.552 27.9196 196.28V196.76H26.9476C26.8676 196.76 26.7996 196.788 26.7436 196.844C26.6876 196.9 26.6596 196.968 26.6596 197.048V197.756C26.6596 197.836 26.6876 197.904 26.7436 197.96C26.7996 198.016 26.8676 198.044 26.9476 198.044H27.9196V202.712C27.9196 202.792 27.9476 202.86 28.0036 202.916C28.0596 202.972 28.1276 203 28.2076 203H29.2036ZM36.0436 203C36.1316 203 36.2016 202.972 36.2536 202.916C36.3056 202.86 36.3316 202.792 36.3316 202.712V201.956C36.3316 201.868 36.3056 201.798 36.2536 201.746C36.2016 201.694 36.1316 201.668 36.0436 201.668H35.2036C34.9316 201.668 34.7356 201.58 34.6156 201.404C34.4956 201.228 34.4356 200.968 34.4356 200.624V198.044H35.9356C36.0156 198.044 36.0836 198.016 36.1396 197.96C36.1956 197.904 36.2236 197.836 36.2236 197.756V197.048C36.2236 196.968 36.1956 196.9 36.1396 196.844C36.0836 196.788 36.0156 196.76 35.9356 196.76H34.4356V194.768C34.4356 194.68 34.4096 194.61 34.3576 194.558C34.3056 194.506 34.2356 194.48 34.1476 194.48H33.1516C33.0716 194.48 33.0036 194.506 32.9476 194.558C32.8916 194.61 32.8636 194.68 32.8636 194.768V196.76H31.9156C31.8356 196.76 31.7676 196.788 31.7116 196.844C31.6556 196.9 31.6276 196.968 31.6276 197.048V197.756C31.6276 197.836 31.6556 197.904 31.7116 197.96C31.7676 198.016 31.8356 198.044 31.9156 198.044H32.8636V200.756C32.8636 201.492 33.0476 202.05 33.4156 202.43C33.7836 202.81 34.3316 203 35.0596 203H36.0436Z" fill="#656565"/>
<path fill-rule="evenodd" clip-rule="evenodd" d="M90.6016 202.9H101.002L95.8016 209.4L90.6016 202.9Z" fill="#656565"/>
<path d="M95.8008 189.25V204.85" stroke="#656565" stroke-width="2" stroke-dasharray="2 2"/>
<path fill-rule="evenodd" clip-rule="evenodd" d="M85.1244 195.1C85.9211 195.1 86.6494 195.55 87.0057 196.263L88.6133 199.478C88.8588 199.969 88.7625 200.562 88.3744 200.95C88.1156 201.209 87.6961 201.209 87.4374 200.95C87.387 200.9 87.3451 200.842 87.3133 200.778L85.7744 197.7V208.1C85.7744 208.818 85.1923 209.4 84.4744 209.4C83.7564 209.4 83.1744 208.818 83.1744 208.1V203.55C83.1744 203.191 82.8834 202.9 82.5244 202.9C82.1654 202.9 81.8744 203.191 81.8744 203.55V208.1C81.8744 208.818 81.2923 209.4 80.5744 209.4C79.8564 209.4 79.2744 208.818 79.2744 208.1V197.7L77.7355 200.778C77.5718 201.105 77.1738 201.238 76.8466 201.074C76.7829 201.042 76.7247 201 76.6744 200.95C76.2862 200.562 76.19 199.969 76.4355 199.478L78.043 196.263C78.3738 195.601 79.0255 195.166 79.7548 195.107L79.9244 195.1H85.1244ZM82.5244 188.6C83.9603 188.6 85.1244 189.764 85.1244 191.2C85.1244 192.636 83.9603 193.8 82.5244 193.8C81.0884 193.8 79.9244 192.636 79.9244 191.2C79.9244 189.764 81.0884 188.6 82.5244 188.6Z" fill="#656565"/>
<defs>
<clipPath id="clip0_421_12004">
<rect width="86" height="56" fill="white" transform="translate(11.5 75)"/>
</clipPath>
</defs>
</svg>
