<svg width="18" height="16" viewBox="0 0 18 16" fill="none" xmlns="http://www.w3.org/2000/svg">
<path d="M2.28711 0.75H15.7114C15.8325 0.75 15.951 0.785171 16.0524 0.851238C16.1539 0.917305 16.234 1.01142 16.283 1.12215C16.332 1.23288 16.3477 1.35546 16.3284 1.47498C16.309 1.5945 16.2553 1.70583 16.1739 1.79542L11.0368 7.44621C10.9322 7.56125 10.8743 7.71115 10.8743 7.86663V12.2905C10.8743 12.3934 10.8489 12.4947 10.8003 12.5854C10.7518 12.6761 10.6816 12.7535 10.596 12.8105L8.09595 14.4772C8.00183 14.54 7.89244 14.576 7.77944 14.5814C7.66645 14.5869 7.55409 14.5616 7.45435 14.5082C7.35461 14.4548 7.27123 14.3754 7.2131 14.2784C7.15497 14.1813 7.12427 14.0703 7.12427 13.9572V7.86663C7.12427 7.71115 7.06631 7.56125 6.96173 7.44621L1.82465 1.79542C1.7432 1.70583 1.68953 1.5945 1.67016 1.47498C1.65079 1.35546 1.66655 1.23288 1.71554 1.12215C1.76452 1.01142 1.84462 0.917305 1.94608 0.851238C2.04755 0.785171 2.16603 0.75 2.28711 0.75V0.75Z" stroke="#C7C5C5" stroke-width="1.5" stroke-linecap="round" stroke-linejoin="round"/>
</svg>
