<svg width="24" height="24" viewBox="0 0 24 24" fill="none" xmlns="http://www.w3.org/2000/svg">
<path d="M21.4636 8.7708C21.2625 8.54105 21.0152 8.35707 20.7381 8.23107C20.461 8.10507 20.1605 8.03994 19.8565 8.04H14.8567V6.6C14.8567 5.64522 14.4804 4.72955 13.8107 4.05442C13.1409 3.37928 12.2326 3 11.2854 3C11.1527 2.9999 11.0226 3.03707 10.9097 3.10734C10.7968 3.1776 10.7055 3.27818 10.6461 3.3978L7.27303 10.2H3.42852C3.04965 10.2 2.6863 10.3517 2.4184 10.6218C2.1505 10.8918 2 11.2581 2 11.64V19.56C2 19.9419 2.1505 20.3082 2.4184 20.5782C2.6863 20.8483 3.04965 21 3.42852 21H18.7851C19.3072 21.0002 19.8113 20.8083 20.2029 20.4602C20.5945 20.1122 20.8466 19.6321 20.9118 19.11L21.9832 10.47C22.0212 10.1658 21.9945 9.85698 21.9049 9.564C21.8153 9.27103 21.6649 9.00063 21.4636 8.7708ZM3.42852 11.64H6.99983V19.56H3.42852V11.64Z" fill="currentColor"/>
</svg>
