<svg width="298" height="228" viewBox="0 0 298 228" fill="none" xmlns="http://www.w3.org/2000/svg">
<g clip-path="url(#clip0_769_4829)">
<path d="M239.41 67.5938H239.345L201.705 83.705L150.206 105.749C150.005 105.834 149.789 105.878 149.571 105.879C149.352 105.88 149.136 105.838 148.934 105.755L95.8024 83.659L57.238 67.62L57.1791 67.5938H57.1135C56.505 67.5944 55.9216 67.837 55.4913 68.2683C55.0611 68.6997 54.819 69.2845 54.8184 69.8944V169.809C54.819 170.419 55.0611 171.004 55.4913 171.435C55.9216 171.866 56.505 172.109 57.1135 172.11H239.41C240.019 172.109 240.602 171.866 241.033 171.435C241.463 171.004 241.705 170.419 241.705 169.809V69.8944C241.705 69.2845 241.463 68.6997 241.033 68.2683C240.602 67.837 240.019 67.5944 239.41 67.5938Z" fill="white"/>
<path d="M239.573 68.2512C239.506 68.2513 239.441 68.2307 239.386 68.1923L148.71 4.88997C148.434 4.69822 148.106 4.59575 147.771 4.59632C147.435 4.59689 147.107 4.70048 146.832 4.89317L56.8092 68.1917C56.738 68.2414 56.65 68.2607 56.5646 68.2456C56.4791 68.2304 56.4032 68.1818 56.3534 68.1106C56.3036 68.0394 56.2839 67.9513 56.2988 67.8656C56.3136 67.7799 56.3617 67.7036 56.4326 67.6534L146.455 4.35494C146.841 4.08522 147.299 3.94023 147.77 3.93946C148.24 3.93868 148.699 4.08216 149.085 4.35061L239.761 67.6528C239.818 67.6928 239.861 67.7501 239.884 67.8164C239.906 67.8826 239.907 67.9543 239.886 68.0211C239.865 68.0879 239.824 68.1462 239.767 68.1876C239.711 68.229 239.643 68.2513 239.573 68.2512Z" fill="#3F3D56"/>
<path d="M61.9531 70.4954L147.859 6.67383L234.418 75.0364L152.286 123.843L107.695 113.655L61.9531 70.4954Z" fill="#E6E6E6"/>
<path d="M111.46 153.989H69.0199C68.494 153.99 67.9894 153.781 67.617 153.409C67.2446 153.037 67.035 152.531 67.0342 152.004C67.0334 151.477 67.2415 150.971 67.6128 150.598C67.9841 150.225 68.4882 150.014 69.014 150.014H111.46C111.986 150.013 112.49 150.222 112.863 150.594C113.235 150.966 113.445 151.471 113.445 151.998C113.446 152.525 113.238 153.031 112.867 153.405C112.496 153.778 111.991 153.988 111.466 153.989H111.46Z" fill="#00BEBE"/>
<path d="M84.246 145.444H69.0195C68.4938 145.444 67.9896 145.235 67.6175 144.863C67.2454 144.491 67.0359 143.986 67.0352 143.459C67.0344 142.932 67.2423 142.427 67.6133 142.053C67.9843 141.68 68.488 141.47 69.0136 141.469H84.246C84.5065 141.468 84.7645 141.519 85.0054 141.619C85.2462 141.718 85.4652 141.864 85.6497 142.048C85.8342 142.233 85.9808 142.452 86.0808 142.693C86.1809 142.934 86.2326 143.192 86.233 143.453C86.2334 143.715 86.1825 143.973 86.0831 144.215C85.9837 144.456 85.8378 144.675 85.6539 144.86C85.4699 145.045 85.2514 145.192 85.0108 145.292C84.7702 145.392 84.5123 145.444 84.2518 145.444H84.246Z" fill="#00BEBE"/>
<path d="M149.068 106.043C148.746 106.043 148.426 105.98 148.128 105.858L95.1465 83.8213V14.8427C95.1472 14.2327 95.3892 13.6479 95.8195 13.2166C96.2498 12.7853 96.8331 12.5427 97.4416 12.542H199.082C199.69 12.5427 200.274 12.7853 200.704 13.2166C201.134 13.6479 201.376 14.2327 201.377 14.8427V83.8694L201.277 83.9121L150.038 105.847C149.731 105.976 149.401 106.043 149.068 106.043Z" fill="white"/>
<path d="M149.068 106.207C148.724 106.208 148.383 106.141 148.065 106.01L94.9824 83.9313V14.8429C94.9832 14.1894 95.2425 13.5628 95.7035 13.1007C96.1645 12.6386 96.7895 12.3787 97.4415 12.3779H199.082C199.734 12.3787 200.359 12.6386 200.82 13.1007C201.281 13.5628 201.54 14.1894 201.541 14.8429V83.9782L150.102 105.999C149.775 106.137 149.423 106.207 149.068 106.207ZM95.6381 83.4922L148.315 105.403C148.806 105.603 149.357 105.599 149.846 105.394L200.885 83.5443V14.8429C200.885 14.3637 200.694 13.9042 200.356 13.5654C200.018 13.2265 199.56 13.0359 199.082 13.0353H97.4415C96.9634 13.0359 96.505 13.2265 96.167 13.5654C95.8289 13.9042 95.6387 14.3637 95.6382 14.8429L95.6381 83.4922Z" fill="#3F3D56"/>
<path d="M238.918 67.5938H238.853L201.213 83.705L149.714 105.749C149.513 105.834 149.297 105.878 149.079 105.879C148.86 105.88 148.644 105.838 148.442 105.755L95.3102 83.659L56.7458 67.62L56.6869 67.5938H56.6213C56.0128 67.5944 55.4294 67.837 54.9991 68.2683C54.5689 68.6997 54.3268 69.2845 54.3262 69.8944V169.809C54.3268 170.419 54.5689 171.004 54.9991 171.435C55.4294 171.866 56.0128 172.109 56.6213 172.11H238.918C239.527 172.109 240.11 171.866 240.54 171.435C240.971 171.004 241.213 170.419 241.213 169.809V69.8944C241.213 69.2845 240.971 68.6997 240.54 68.2683C240.11 67.837 239.527 67.5944 238.918 67.5938ZM240.558 169.809C240.557 170.245 240.385 170.663 240.077 170.971C239.77 171.279 239.353 171.452 238.918 171.452H56.6213C56.1865 171.452 55.7696 171.279 55.4622 170.971C55.1548 170.663 54.9821 170.245 54.9819 169.809V69.8944C54.9825 69.4695 55.1469 69.0612 55.4408 68.7549C55.7348 68.4486 56.1354 68.2681 56.559 68.2511L95.3102 84.3689L148.19 106.363C148.762 106.597 149.403 106.593 149.973 106.353L201.213 84.4182L238.984 68.2511C239.407 68.2694 239.806 68.4504 240.099 68.7565C240.392 69.0626 240.557 69.4701 240.558 69.8944V169.809Z" fill="#3F3D56"/>
<path d="M140.82 38.3261H104.754C104.059 38.3251 103.393 38.0476 102.902 37.5546C102.411 37.0616 102.135 36.3934 102.135 35.6967C102.135 35 102.411 34.3318 102.902 33.8388C103.393 33.3458 104.059 33.0684 104.754 33.0674H140.82C141.515 33.0684 142.181 33.3458 142.672 33.8388C143.163 34.3318 143.439 35 143.439 35.6967C143.439 36.3934 143.163 37.0616 142.672 37.5546C142.181 38.0476 141.515 38.3251 140.82 38.3261Z" fill="#00BEBE"/>
<path d="M122.131 27.1522H104.754C104.058 27.1522 103.391 26.8752 102.899 26.3821C102.407 25.889 102.131 25.2202 102.131 24.5229C102.131 23.8255 102.407 23.1568 102.899 22.6637C103.391 22.1706 104.058 21.8936 104.754 21.8936H122.131C122.827 21.8936 123.494 22.1706 123.986 22.6637C124.478 23.1568 124.754 23.8255 124.754 24.5229C124.754 25.2202 124.478 25.889 123.986 26.3821C123.494 26.8752 122.827 27.1522 122.131 27.1522Z" fill="#00BEBE"/>
<path d="M175.236 64.62H120.153C119.458 64.619 118.792 64.3416 118.301 63.8486C117.81 63.3556 117.534 62.6874 117.534 61.9907C117.534 61.294 117.81 60.6258 118.301 60.1328C118.792 59.6398 119.458 59.3623 120.153 59.3613H175.236C175.931 59.3623 176.597 59.6398 177.088 60.1328C177.579 60.6258 177.855 61.294 177.855 61.9907C177.855 62.6874 177.579 63.3556 177.088 63.8486C176.597 64.3416 175.931 64.619 175.236 64.62Z" fill="#CCCCCC"/>
<path d="M175.236 76.7801H120.153C119.458 76.7801 118.79 76.5031 118.299 76.01C117.807 75.5169 117.53 74.8482 117.53 74.1508C117.53 73.4535 117.807 72.7847 118.299 72.2916C118.79 71.7985 119.458 71.5215 120.153 71.5215H175.236C175.931 71.5215 176.599 71.7985 177.09 72.2916C177.582 72.7847 177.859 73.4535 177.859 74.1508C177.859 74.8482 177.582 75.5169 177.09 76.01C176.599 76.5031 175.931 76.7801 175.236 76.7801Z" fill="#CCCCCC"/>
<path d="M237.901 93.548C251.676 93.548 262.842 82.3544 262.842 68.5465C262.842 54.7385 251.676 43.5449 237.901 43.5449C224.126 43.5449 212.96 54.7385 212.96 68.5465C212.96 82.3544 224.126 93.548 237.901 93.548Z" fill="#00BEBE"/>
<path d="M235.525 79.101L228.061 69.479L232.402 66.0944L235.936 70.6502L247.876 58.0146L251.869 61.8067L235.525 79.101Z" fill="white"/>
<path d="M5.96854 24.9525C5.7983 24.8516 5.60314 24.8008 5.40544 24.806C5.20774 24.8112 5.01549 24.8721 4.85074 24.9818C4.68599 25.0915 4.55541 25.2455 4.47395 25.4261C4.3925 25.6068 4.36348 25.8068 4.39021 26.0032L5.20304 31.9794C5.21421 32.0675 5.20821 32.157 5.18536 32.2428C5.15987 32.3273 5.11734 32.4056 5.0604 32.473L0.507886 37.8793C0.355801 38.0533 0.266504 38.2736 0.254356 38.5046C0.242209 38.7356 0.307922 38.964 0.440917 39.1531L0.445689 39.16C0.573091 39.3512 0.760617 39.4941 0.978409 39.566C1.1962 39.6379 1.43173 39.6347 1.64751 39.5569L4.93524 38.4383C5.04423 38.4022 5.16096 38.3964 5.27296 38.4217C5.38496 38.4469 5.488 38.5023 5.57105 38.5817C5.633 38.6392 5.68241 38.709 5.71615 38.7866C5.7499 38.8642 5.76724 38.948 5.76712 39.0326L5.89563 50.7751C5.89696 50.9451 5.93958 51.1122 6.01977 51.262C6.09995 51.4118 6.21531 51.5397 6.35588 51.6348C6.49594 51.7297 6.65667 51.7894 6.82457 51.809C6.99248 51.8286 7.16262 51.8075 7.32068 51.7474L31.8594 42.3401C32.0444 42.2695 32.2058 42.148 32.3251 41.9896C32.4443 41.8311 32.5165 41.6422 32.5333 41.4445C32.5502 41.2467 32.511 41.0482 32.4204 40.8718C32.3297 40.6954 32.1912 40.5482 32.0208 40.4472L31.6867 40.2483L5.96854 24.9525ZM4.80564 25.9458C4.78985 25.8278 4.80752 25.7078 4.85662 25.5995C4.90572 25.4911 4.98427 25.3988 5.08327 25.3331C5.18227 25.2674 5.29771 25.231 5.4164 25.2281C5.53508 25.2251 5.6522 25.2557 5.75435 25.3163L31.4643 40.6076L31.8065 40.811C31.9082 40.8719 31.9908 40.9603 32.0448 41.0659C32.0988 41.1716 32.1222 41.2904 32.1121 41.4087C32.1021 41.527 32.0592 41.6402 31.9881 41.7352C31.9171 41.8302 31.8208 41.9034 31.7104 41.9462L7.17168 51.3536C7.07677 51.3898 6.97456 51.4025 6.87371 51.3906C6.77286 51.3787 6.67637 51.3426 6.59243 51.2853C6.50849 51.228 6.43957 51.1513 6.39155 51.0616C6.34353 50.9719 6.31783 50.8719 6.31661 50.7702L6.18814 39.0278C6.18821 38.9116 6.16831 38.7962 6.12928 38.6868L31.112 41.5642C31.2094 41.5764 31.308 41.5541 31.3907 41.5012C31.4735 41.4482 31.5352 41.3679 31.5651 41.2742C31.5951 41.1805 31.5914 41.0792 31.5548 40.9879C31.5181 40.8966 31.4508 40.821 31.3644 40.7742C31.3435 40.7625 31.3215 40.7529 31.2986 40.7455L5.62598 32.1551C5.63221 32.0774 5.62968 31.9992 5.61846 31.922L4.80564 25.9458Z" fill="#F1F1F1"/>
<path d="M5.96854 24.9525C5.7983 24.8516 5.60314 24.8008 5.40544 24.806C5.20774 24.8112 5.01549 24.8721 4.85074 24.9818C4.68599 25.0915 4.55541 25.2455 4.47395 25.4261C4.3925 25.6068 4.36348 25.8068 4.39021 26.0032L5.20304 31.9794C5.21421 32.0675 5.20821 32.157 5.18536 32.2428C5.15987 32.3273 5.11734 32.4056 5.0604 32.473L0.507886 37.8793C0.355801 38.0533 0.266504 38.2736 0.254356 38.5046C0.242209 38.7356 0.307922 38.964 0.440917 39.1531L0.445689 39.16C0.573091 39.3512 0.760617 39.4941 0.978409 39.566C1.1962 39.6379 1.43173 39.6347 1.64751 39.5569L4.93524 38.4383C5.04423 38.4022 5.16096 38.3964 5.27296 38.4217C5.38496 38.4469 5.488 38.5023 5.57105 38.5817C5.633 38.6392 5.68241 38.709 5.71615 38.7866C5.7499 38.8642 5.76724 38.948 5.76712 39.0326L5.89563 50.7751C5.89696 50.9451 5.93958 51.1122 6.01977 51.262C6.09995 51.4118 6.21531 51.5397 6.35588 51.6348C6.49594 51.7297 6.65667 51.7894 6.82457 51.809C6.99248 51.8286 7.16262 51.8075 7.32068 51.7474L31.8594 42.3401C32.0444 42.2695 32.2058 42.148 32.3251 41.9896C32.4443 41.8311 32.5165 41.6422 32.5333 41.4445C32.5502 41.2467 32.511 41.0482 32.4204 40.8718C32.3297 40.6954 32.1912 40.5482 32.0208 40.4472L31.6867 40.2483L5.96854 24.9525ZM4.80564 25.9458C4.78985 25.8278 4.80752 25.7078 4.85662 25.5995C4.90572 25.4911 4.98427 25.3988 5.08327 25.3331C5.18227 25.2674 5.29771 25.231 5.4164 25.2281C5.53508 25.2251 5.6522 25.2557 5.75435 25.3163L31.4643 40.6076L31.8065 40.811C31.9082 40.8719 31.9908 40.9603 32.0448 41.0659C32.0988 41.1716 32.1222 41.2904 32.1121 41.4087C32.1021 41.527 32.0592 41.6402 31.9881 41.7352C31.9171 41.8302 31.8208 41.9034 31.7104 41.9462L7.17168 51.3536C7.07677 51.3898 6.97455 51.4025 6.87371 51.3906C6.77286 51.3787 6.67637 51.3426 6.59243 51.2853C6.50849 51.228 6.43959 51.1513 6.39157 51.0616C6.34355 50.9719 6.31783 50.8719 6.31661 50.7702L6.18812 39.0278C6.1882 38.9116 6.16829 38.7962 6.12927 38.6868C6.07428 38.5293 5.98177 38.3875 5.85975 38.2739C5.84315 38.2573 5.82482 38.2418 5.80645 38.2263L5.80528 38.2246C5.66744 38.1105 5.5028 38.0337 5.327 38.0013C5.15119 37.9689 4.97003 37.9821 4.80074 38.0396L1.51131 39.1594C1.38165 39.2066 1.23989 39.2084 1.10904 39.1647C0.978185 39.121 0.8659 39.0343 0.790386 38.9186L0.787992 38.9151C0.707274 38.8021 0.667318 38.6649 0.6747 38.5261C0.682081 38.3873 0.736365 38.2552 0.828611 38.1515L5.38119 32.7452C5.42986 32.6886 5.47202 32.6266 5.50689 32.5606L5.50862 32.5594C5.54227 32.4961 5.56911 32.4294 5.58869 32.3605C5.60838 32.2936 5.62088 32.2247 5.626 32.1552C5.63222 32.0774 5.6297 31.9992 5.61848 31.922L4.80564 25.9458Z" fill="#E5E5E5"/>
<path d="M5.62646 32.1549L31.2991 40.7453C31.3219 40.7527 31.344 40.7623 31.3649 40.774C31.4513 40.8208 31.5186 40.8964 31.5552 40.9877C31.5919 41.079 31.5955 41.1803 31.5656 41.274C31.5356 41.3677 31.4739 41.448 31.3912 41.501C31.3084 41.5539 31.2098 41.5762 31.1124 41.564L6.12973 38.6866L5.68854 38.6362L5.73739 38.218L5.80574 38.2244L5.8069 38.2261L31.1601 41.1441L5.50909 32.5591L5.50735 32.5603L5.39648 32.522L5.52964 32.1221L5.62646 32.1549Z" fill="#E5E5E5"/>
<path d="M292.268 0.146826L266.55 15.4426L266.216 15.6416C266.045 15.7426 265.907 15.8898 265.816 16.0662C265.725 16.2426 265.686 16.4411 265.703 16.6388C265.72 16.8365 265.792 17.0255 265.911 17.1839C266.031 17.3423 266.192 17.4638 266.377 17.5344L290.916 26.9418C291.074 27.0018 291.244 27.023 291.412 27.0034C291.58 26.9838 291.74 26.924 291.88 26.8292C292.021 26.7341 292.136 26.6061 292.217 26.4563C292.297 26.3065 292.339 26.1394 292.341 25.9694L292.469 14.2269C292.469 14.1423 292.486 14.0585 292.52 13.9809C292.554 13.9033 292.603 13.8336 292.665 13.776C292.748 13.6966 292.851 13.6413 292.963 13.616C293.075 13.5908 293.192 13.5965 293.301 13.6327L296.589 14.7513C296.805 14.8291 297.04 14.8322 297.258 14.7603C297.476 14.6884 297.663 14.5455 297.791 14.3544L297.795 14.3475C297.928 14.1584 297.994 13.93 297.982 13.6989C297.97 13.4679 297.881 13.2477 297.728 13.0737L293.176 7.6673C293.119 7.59996 293.077 7.52163 293.051 7.43714C293.028 7.35132 293.022 7.26187 293.033 7.17375L293.846 1.19755C293.873 1.00112 293.844 0.801122 293.762 0.62047C293.681 0.439818 293.55 0.285832 293.386 0.176156C293.221 0.0664798 293.029 0.00554994 292.831 0.000361453C292.633 -0.00482704 292.438 0.0459415 292.268 0.146826ZM293.431 1.14015L292.618 7.11633C292.607 7.19352 292.604 7.27174 292.61 7.34949L266.938 15.9398C266.915 15.9472 266.893 15.9568 266.872 15.9685C266.786 16.0153 266.718 16.0909 266.682 16.1822C266.645 16.2735 266.641 16.3748 266.671 16.4685C266.701 16.5623 266.763 16.6425 266.846 16.6955C266.928 16.7485 267.027 16.7708 267.124 16.7586L292.107 13.8812C292.068 13.9906 292.048 14.1059 292.048 14.2221L291.92 25.9645C291.919 26.0663 291.893 26.1663 291.845 26.2559C291.797 26.3456 291.728 26.4224 291.644 26.4797C291.56 26.5369 291.464 26.573 291.363 26.5849C291.262 26.5968 291.16 26.5842 291.065 26.548L266.526 17.1406C266.416 17.0977 266.319 17.0246 266.248 16.9295C266.177 16.8345 266.134 16.7214 266.124 16.603C266.114 16.4847 266.138 16.3659 266.192 16.2603C266.246 16.1546 266.328 16.0663 266.43 16.0053L266.772 15.8019L292.482 0.510648C292.584 0.449999 292.701 0.419412 292.82 0.422384C292.939 0.425356 293.054 0.461769 293.153 0.527455C293.252 0.59314 293.331 0.68544 293.38 0.793792C293.429 0.902144 293.447 1.0222 293.431 1.14015Z" fill="#F1F1F1"/>
<path d="M292.268 0.146826L266.55 15.4426L266.216 15.6416C266.045 15.7426 265.907 15.8898 265.816 16.0662C265.725 16.2426 265.686 16.4411 265.703 16.6388C265.72 16.8365 265.792 17.0255 265.911 17.1839C266.031 17.3423 266.192 17.4638 266.377 17.5344L290.916 26.9418C291.074 27.0018 291.244 27.023 291.412 27.0034C291.58 26.9838 291.74 26.924 291.88 26.8292C292.021 26.7341 292.136 26.6061 292.217 26.4563C292.297 26.3065 292.339 26.1394 292.341 25.9694L292.469 14.2269C292.469 14.1423 292.486 14.0585 292.52 13.9809C292.554 13.9033 292.603 13.8336 292.665 13.776C292.748 13.6966 292.851 13.6413 292.963 13.616C293.075 13.5908 293.192 13.5965 293.301 13.6327L296.589 14.7513C296.805 14.8291 297.04 14.8322 297.258 14.7603C297.476 14.6884 297.663 14.5455 297.791 14.3544L297.795 14.3475C297.928 14.1584 297.994 13.93 297.982 13.6989C297.97 13.4679 297.881 13.2477 297.728 13.0737L293.176 7.6673C293.119 7.59996 293.077 7.52163 293.051 7.43714C293.028 7.35132 293.022 7.26187 293.033 7.17375L293.846 1.19755C293.873 1.00112 293.844 0.801122 293.762 0.62047C293.681 0.439818 293.55 0.285832 293.386 0.176156C293.221 0.0664798 293.029 0.00554994 292.831 0.000361453C292.633 -0.00482704 292.438 0.0459415 292.268 0.146826ZM293.431 1.14015L292.618 7.11635C292.607 7.19354 292.604 7.27175 292.61 7.3495C292.615 7.41907 292.628 7.4879 292.648 7.55481C292.667 7.62376 292.694 7.69043 292.728 7.7537L292.729 7.75489C292.764 7.82096 292.807 7.88288 292.855 7.93951L297.408 13.3458C297.5 13.4495 297.554 13.5817 297.562 13.7205C297.569 13.8593 297.529 13.9964 297.448 14.1094L297.446 14.1129C297.37 14.2286 297.258 14.3153 297.127 14.3591C296.997 14.4028 296.855 14.4009 296.725 14.3537L293.436 13.2339C293.266 13.1764 293.085 13.1632 292.909 13.1956C292.734 13.228 292.569 13.3049 292.431 13.419L292.43 13.4207C292.412 13.4362 292.393 13.4516 292.377 13.4683C292.255 13.5819 292.162 13.7236 292.107 13.8811C292.068 13.9906 292.048 14.1059 292.048 14.2221L291.92 25.9645C291.919 26.0663 291.893 26.1662 291.845 26.2559C291.797 26.3456 291.728 26.4224 291.644 26.4796C291.56 26.5369 291.463 26.573 291.363 26.5849C291.262 26.5968 291.16 26.5841 291.065 26.548L266.526 17.1406C266.416 17.0977 266.319 17.0246 266.248 16.9295C266.177 16.8345 266.134 16.7214 266.124 16.603C266.114 16.4847 266.138 16.366 266.192 16.2603C266.246 16.1546 266.328 16.0663 266.43 16.0053L266.772 15.8019L292.482 0.510656C292.584 0.450007 292.701 0.41942 292.82 0.422392C292.939 0.425364 293.054 0.461777 293.153 0.527463C293.252 0.593148 293.331 0.685448 293.38 0.7938C293.429 0.902152 293.447 1.0222 293.431 1.14015Z" fill="#E5E5E5"/>
<path d="M292.707 7.31641L292.84 7.71629L292.73 7.75466L292.728 7.75347L267.077 16.3384L292.43 13.4204L292.431 13.4187L292.5 13.4123L292.548 13.8306L292.107 13.8809L267.125 16.7584C267.027 16.7706 266.929 16.7483 266.846 16.6953C266.763 16.6423 266.701 16.5621 266.671 16.4683C266.641 16.3746 266.645 16.2733 266.682 16.182C266.718 16.0907 266.786 16.0151 266.872 15.9683C266.893 15.9566 266.915 15.947 266.938 15.9396L292.611 7.3493L292.707 7.31641Z" fill="#E5E5E5"/>
<path d="M72.1969 213.867C72.0209 213.957 71.8738 214.096 71.7725 214.266C71.6712 214.436 71.6199 214.632 71.6243 214.83C71.6287 215.028 71.6888 215.221 71.7976 215.387C71.9063 215.552 72.0595 215.684 72.2394 215.766L77.7128 218.271C77.793 218.309 77.8653 218.362 77.9254 218.427C77.983 218.494 78.0263 218.571 78.0527 218.656L80.1782 225.402C80.2437 225.624 80.3816 225.817 80.5699 225.951C80.7582 226.085 80.986 226.151 81.2165 226.14L81.2249 226.139C81.4541 226.133 81.6748 226.051 81.8519 225.905C82.0289 225.759 82.1521 225.558 82.2018 225.333L83.0157 221.95C83.0434 221.838 83.101 221.736 83.1821 221.655C83.2633 221.573 83.365 221.516 83.4764 221.488C83.558 221.466 83.6432 221.461 83.7266 221.474C83.8101 221.487 83.89 221.517 83.9613 221.563L93.9309 227.729C94.075 227.819 94.2387 227.872 94.4078 227.884C94.577 227.896 94.7465 227.867 94.9018 227.799C95.0567 227.731 95.1929 227.626 95.2992 227.495C95.4055 227.363 95.4786 227.207 95.5124 227.041L100.694 201.223C100.734 201.029 100.718 200.827 100.648 200.641C100.578 200.456 100.457 200.293 100.299 200.173C100.142 200.053 99.9534 199.981 99.7562 199.963C99.559 199.946 99.3609 199.984 99.1847 200.075L98.8384 200.251L72.1969 213.867ZM72.413 215.383C72.3051 215.334 72.2133 215.254 72.1482 215.155C72.0831 215.055 72.0473 214.94 72.0448 214.821C72.0423 214.702 72.0733 214.584 72.1342 214.482C72.1951 214.38 72.2835 214.297 72.3893 214.243L99.0224 200.632L99.3769 200.451C99.4826 200.397 99.6011 200.374 99.7191 200.385C99.8371 200.396 99.9497 200.439 100.044 200.511C100.139 200.583 100.211 200.68 100.253 200.791C100.295 200.902 100.306 201.022 100.283 201.139L95.1007 226.957C95.0805 227.057 95.0365 227.15 94.9726 227.229C94.9087 227.308 94.8266 227.371 94.7335 227.411C94.6403 227.452 94.5388 227.469 94.4375 227.462C94.3362 227.455 94.2382 227.423 94.1517 227.37L84.1822 221.203C84.0842 221.141 83.9764 221.096 83.8633 221.071L99.6407 201.442C99.7031 201.366 99.737 201.27 99.7366 201.172C99.7361 201.073 99.7014 200.978 99.6384 200.903C99.5753 200.827 99.488 200.776 99.3914 200.759C99.2949 200.741 99.1951 200.757 99.1095 200.806C99.0885 200.817 99.0686 200.831 99.0502 200.846L78.0869 218.007C78.0247 217.96 77.9574 217.92 77.8864 217.888L72.413 215.383Z" fill="#F1F1F1"/>
<path d="M72.1969 213.867C72.0209 213.957 71.8738 214.096 71.7725 214.266C71.6712 214.436 71.6199 214.632 71.6243 214.83C71.6287 215.028 71.6888 215.221 71.7976 215.387C71.9063 215.552 72.0595 215.684 72.2394 215.766L77.7128 218.271C77.793 218.309 77.8653 218.362 77.9254 218.427C77.983 218.494 78.0263 218.571 78.0527 218.656L80.1782 225.402C80.2437 225.624 80.3816 225.817 80.5699 225.951C80.7582 226.085 80.986 226.151 81.2165 226.14L81.2249 226.139C81.4541 226.133 81.6748 226.051 81.8519 225.905C82.0289 225.759 82.1521 225.558 82.2018 225.333L83.0157 221.95C83.0434 221.838 83.101 221.736 83.1821 221.655C83.2633 221.573 83.365 221.516 83.4764 221.488C83.558 221.466 83.6432 221.461 83.7266 221.474C83.8101 221.487 83.89 221.517 83.9613 221.563L93.9309 227.729C94.075 227.819 94.2387 227.872 94.4078 227.884C94.577 227.896 94.7465 227.867 94.9018 227.799C95.0567 227.731 95.1929 227.626 95.2992 227.495C95.4055 227.363 95.4786 227.207 95.5124 227.041L100.694 201.223C100.734 201.029 100.718 200.827 100.648 200.641C100.578 200.456 100.457 200.293 100.299 200.173C100.142 200.053 99.9534 199.981 99.7562 199.963C99.559 199.946 99.3609 199.984 99.1847 200.075L98.8384 200.251L72.1969 213.867ZM72.413 215.383C72.3051 215.334 72.2133 215.254 72.1482 215.155C72.0831 215.055 72.0473 214.94 72.0448 214.821C72.0423 214.702 72.0733 214.584 72.1342 214.482C72.1951 214.38 72.2835 214.297 72.3893 214.243L99.0224 200.632L99.3769 200.451C99.4826 200.397 99.6011 200.374 99.7191 200.385C99.8371 200.396 99.9497 200.439 100.044 200.511C100.139 200.583 100.211 200.68 100.253 200.791C100.295 200.902 100.306 201.022 100.283 201.139L95.1007 226.957C95.0805 227.057 95.0365 227.15 94.9726 227.229C94.9087 227.308 94.8266 227.371 94.7335 227.411C94.6403 227.452 94.5388 227.469 94.4375 227.462C94.3362 227.455 94.2382 227.423 94.1517 227.37L84.1822 221.203C84.0842 221.141 83.9763 221.096 83.8632 221.071C83.701 221.033 83.5321 221.036 83.3711 221.079C83.3482 221.084 83.3254 221.091 83.3024 221.098L83.3004 221.098C83.1305 221.154 82.9777 221.253 82.8565 221.384C82.7352 221.516 82.6495 221.676 82.6075 221.851L81.7938 225.236C81.7642 225.371 81.6901 225.492 81.5833 225.58C81.4765 225.667 81.3433 225.716 81.2054 225.718L81.2012 225.718C81.0628 225.726 80.9258 225.687 80.8127 225.606C80.6996 225.526 80.6172 225.409 80.5791 225.276L78.4536 218.529C78.4319 218.458 78.4022 218.389 78.3651 218.324L78.365 218.322C78.3297 218.26 78.2878 218.201 78.2401 218.148C78.1942 218.096 78.1429 218.048 78.087 218.007C78.0247 217.96 77.9574 217.92 77.8864 217.888L72.413 215.383Z" fill="#E5E5E5"/>
<path d="M78.0873 218.006L99.0504 200.845C99.0689 200.83 99.0888 200.816 99.1098 200.805C99.1954 200.757 99.2952 200.74 99.3917 200.758C99.4883 200.776 99.5756 200.827 99.6387 200.902C99.7017 200.978 99.7364 201.073 99.7368 201.171C99.7373 201.27 99.7034 201.365 99.641 201.441L83.8635 221.07L83.5853 221.417L83.2588 221.152L83.3007 221.098L83.3027 221.098L99.3124 201.176L78.3653 218.321L78.3654 218.324L78.2738 218.397L78.0078 218.07L78.0873 218.006Z" fill="#E5E5E5"/>
</g>
<defs>
<clipPath id="clip0_769_4829">
<rect width="298" height="228" fill="white"/>
</clipPath>
</defs>
</svg>
